# xmcd CD database file
#
# Track frame offsets:
#	150
#	36709
#	69730
#	103836
#	142637
#
# Disc length: 2331 seconds
#
# Revision: 0
# Processed by: cddbd v1.5.1PL0 Copyright (c) Steve Scherf et al.
# Submitted via: CDex 1.50
#
DISCID=46091905
DTITLE=Thelonious Monk Quartet - Spastic and Personal
DYEAR=2004
DGENRE=Jazz
TTITLE0=Bright Mississippi
TTITLE1=Epistrophy
TTITLE2='round Midnight
TTITLE3=Sweet and Lovely
TTITLE4=Evidence
EXTD=YEAR: 2004
EXTT0=
EXTT1=
EXTT2=
EXTT3=
EXTT4=
PLAYORDER=
